Coordinates
version=1
nRows=22
nColumns=24
inDegrees=yes

Units are S.I. units (second, meters, Newtons, ...)
Angles are in degrees.

endheader
time	pelvis_tilt	pelvis_list	pelvis_rotation	pelvis_tx	pelvis_ty	pelvis_tz	hip_flexion_r	hip_adduction_r	hip_rotation_r	knee_angle_r	ankle_angle_r	subtalar_angle_r	mtp_angle_r	hip_flexion_l	hip_adduction_l	hip_rotation_l	knee_angle_l	ankle_angle_l	subtalar_angle_l	mtp_angle_l	lumbar_extension	lumbar_bending	lumbar_rotation
      0.70016667	      1.33394971	     -3.84834992	     -2.88372737	     -0.53232788	      1.01554898	      0.31144731	     10.65914519	      6.48661348	     -4.09826333	    -16.71492057	     -0.22463168	    -11.07549109	     -1.27685823	     18.12375398	     -9.11019683	     -8.24229669	    -73.89699397	      1.31864850	    -15.13025190	     -6.13029958	    -14.41654410	      5.99748447	      6.83305888
      0.70433333	      1.40232654	     -3.72037004	     -2.97753069	     -0.52685354	      1.01665887	      0.31186347	     10.09086950	      6.38304993	     -3.94613501	    -16.41727242	     -0.15305215	    -11.07410669	     -1.25321694	     18.65554597	     -8.96152069	     -8.27651258	    -73.71385365	      1.60194739	    -15.05262881	     -6.27975439	    -14.49661942	      5.80663504	      6.98516857
      0.70850000	      1.40631007	     -3.62016326	     -3.04828115	     -0.52136432	      1.01762136	      0.31220336	      9.58822528	      6.30300336	     -3.82337918	    -16.11389280	     -0.07240870	    -11.06533459	     -1.24892675	     19.25861544	     -8.83226819	     -8.28772563	    -73.47984679	      1.83314696	    -15.08384867	     -6.30483952	    -14.49479821	      5.68300664	      7.02901615
      0.71266667	      1.54315791	     -3.47687822	     -3.16026409	     -0.51589162	      1.01882418	      0.31264520	      8.93535275	      6.17759977	     -3.64857002	    -15.78847086	     -0.01169784	    -11.03110312	     -1.22844765	     19.66269551	     -8.67059829	     -8.37469526	    -73.12232516	      2.08704427	    -14.95723613	     -6.47549835	    -14.65689281	      5.45786100	      7.26362746
      0.71683333	      1.53298091	     -3.38222249	     -3.22471914	     -0.51038664	      1.01971024	      0.31294964	      8.44224281	      6.09798087	     -3.53806714	    -15.46907314	      0.04474044	    -11.03299241	     -1.22596500	     20.24461956	     -8.54330301	     -8.40190023	    -72.74572949	      2.30643708	    -15.00277593	     -6.50127686	    -14.62986376	      5.33623610	      7.29928403
      0.72100000	      1.57009203	     -3.23993658	     -3.30092443	     -0.50490632	      1.02068795	      0.31326303	      7.90361660	      5.96229546	     -3.41417063	    -15.14829698	      0.03356199	    -11.03375722	     -1.22314003	     20.73828284	     -8.35827891	     -8.45733422	    -72.26071501	      2.53352959	    -14.97635365	     -6.56368120	    -14.67783727	      5.13726916	      7.40287479
      0.72516667	      1.75706404	     -3.09838383	     -3.44196545	     -0.49934601	      1.02194154	      0.31377905	      7.17085330	      5.83719347	     -3.19710158	    -14.77744605	      0.10433417	    -11.02127195	     -1.21784041	     20.99553890	     -8.21591200	     -8.63145474	    -71.64596171	      2.66186863	    -14.97390555	     -6.73261133	    -14.88274343	      4.90199861	      7.61536215
      0.72933333	      1.82326363	     -2.98108448	     -3.53987357	     -0.49379695	      1.02291660	      0.31417317	      6.57925704	      5.73087463	     -3.04373599	    -14.42243280	      0.12515018	    -11.03584992	     -1.21922913	     21.39722466	     -8.08011709	     -8.74443506	    -71.01120449	      2.82783969	    -14.98784719	     -6.90053896	    -14.94640929	      4.72700970	      7.72908976
      0.73350000	      1.87907901	     -2.86394097	     -3.63541415	     -0.48824164	      1.02384210	      0.31453263	      6.00030483	      5.61887956	     -2.90487601	    -14.07062993	      0.15804184	    -11.02412451	     -1.22618669	     21.78818642	     -7.94079058	     -8.86498229	    -70.30699974	      2.97677699	    -15.01830906	     -7.06018074	    -14.99355627	      4.54864403	      7.83515608
      0.73766667	      1.98459537	     -2.75848102	     -3.72193285	     -0.48268141	      1.02480944	      0.31488253	      5.35741119	      5.51382540	     -2.77413569	    -13.69577758	      0.17203195	    -11.01960451	     -1.24025760	     22.09892568	     -7.81087732	     -8.99082774	    -69.53096636	      3.12181887	    -15.04780042	     -7.22126515	    -15.09994663	      4.38106459	      7.93969883
      0.74183333	      1.94766795	     -2.67953272	     -3.77505222	     -0.47711459	      1.02545998	      0.31513280	      4.88020130	      5.43581092	     -2.70009231	    -13.34498245	      0.16553191	    -10.99844559	     -1.24635607	     22.57236927	     -7.69755748	     -9.06227606	    -68.73880665	      3.29746198	    -15.06522909	     -7.26591891	    -15.03697738	      4.26586459	      7.98560843
      0.74600000	      2.12064496	     -2.54572581	     -3.90036676	     -0.47152381	      1.02650654	      0.31557323	      4.16054865	      5.29678040	     -2.52873291	    -12.96549149	      0.22875066	    -10.98239068	     -1.26970059	     22.72949719	     -7.55371876	     -9.26888315	    -67.78415077	      3.36169951	    -15.13040038	     -7.41718741	    -15.22234895	      4.03754151	      8.12227250
      0.75016667	      2.20364919	     -2.45166305	     -3.98818593	     -0.46593049	      1.02731569	      0.31591931	      3.53909607	      5.19842868	     -2.40437313	    -12.58521154	      0.23552843	    -10.97009150	     -1.30005897	     22.98835697	     -7.44025439	     -9.41981139	    -66.81499129	      3.49621991	    -15.14489904	     -7.57225462	    -15.30197628	      3.87665086	      8.23268371
      0.75433333	      2.16234729	     -2.39145348	     -4.03571336	     -0.46032982	      1.02782479	      0.31613504	      3.06587056	      5.13378337	     -2.35527938	    -12.23655471	      0.22776809	    -10.95906215	     -1.31239278	     23.38844081	     -7.34543516	     -9.50900667	    -65.82973793	      3.64276640	    -15.14305076	     -7.62183374	    -15.22171068	      3.79691556	      8.27907541
      0.75850000	      2.37127210	     -2.27571087	     -4.15685531	     -0.45472554	      1.02878860	      0.31655877	      2.30253857	      5.00276042	     -2.19870897	    -11.84422678	      0.29520124	    -10.93640336	     -1.35125957	     23.42666015	     -7.22132598	     -9.74261902	    -64.68422196	      3.70040241	    -15.20048795	     -7.77601349	    -15.44902734	      3.57752512	      8.39991177
      0.76266667	      2.44950398	     -2.20150018	     -4.23824744	     -0.44910192	      1.02943709	      0.31687464	      1.69115352	      4.91725654	     -2.11038308	    -11.47793732	      0.32395246	    -10.93813963	     -1.39495550	     23.61185754	     -7.12968217	     -9.91389874	    -63.53068228	      3.80679846	    -15.19384434	     -7.92895084	    -15.51232475	      3.43976111	      8.50482321
      0.76683333	      2.48295222	     -2.13161350	     -4.31766387	     -0.44349450	      1.02995588	      0.31716884	      1.13401039	      4.83778135	     -2.01042286	    -11.12007477	      0.35650879	    -10.92395740	     -1.43876455	     23.82695363	     -7.03925022	    -10.07781599	    -62.32654274	      3.90798144	    -15.19996668	     -8.07351820	    -15.53163168	      3.31551236	      8.58359895
      0.77100000	      2.55267887	     -2.07228659	     -4.39542762	     -0.43787671	      1.03048020	      0.31745294	      0.53639657	      4.76364048	     -1.92781393	    -10.76160568	      0.39396973	    -10.91468676	     -1.48875299	     23.97118997	     -6.96018134	    -10.25565583	    -61.05797312	      4.00688486	    -15.18919357	     -8.22713937	    -15.58910362	      3.19616977	      8.67440978
      0.77516667	      2.47898045	     -2.05759481	     -4.42216258	     -0.43226817	      1.03065673	      0.31759083	      0.10707383	      4.74260939	     -1.90711605	    -10.43253892	      0.39491304	    -10.91149061	     -1.50760222	     24.28579385	     -6.90825443	    -10.35014382	    -59.79113263	      4.13217179	    -15.13888923	     -8.27894111	    -15.47546093	      3.16667548	      8.71528888
      0.77933333	      2.63651742	     -1.98034122	     -4.53825287	     -0.42667149	      1.03125208	      0.31795614	     -0.58154100	      4.64234870	     -1.77310748	    -10.07656185	      0.48352344	    -10.88899184	     -1.56522436	     24.25469899	     -6.82373110	    -10.60593955	    -58.36454942	      4.18008717	    -15.15719885	     -8.44076805	    -15.64515208	      3.00236681	      8.81504945
      0.78350000	      2.54275760	     -1.99399314	     -4.54387513	     -0.42106899	      1.03126716	      0.31803855	     -0.98489479	      4.65237985	     -1.77391294	     -9.75976674	      0.50235067	    -10.90975734	     -1.58527984	     24.54814031	     -6.79317326	    -10.68508868	    -56.99709048	      4.29330021	    -15.07623413	     -8.49080453	    -15.51030786	      3.00503190	      8.86281667
      0.78766667	      2.66711436	     -1.93875637	     -4.65731648	     -0.41547260	      1.03168089	      0.31837716	     -1.62536265	      4.57437367	     -1.64989305	     -9.43074578	      0.60120094	    -10.90203448	     -1.64686750	     24.50416847	     -6.73201973	    -10.94971690	    -55.46905403	      4.33637530	    -15.08482930	     -8.65038750	    -15.64289325	      2.86934491	      8.94544752
